<svg xmlns="http://www.w3.org/2000/svg" viewBox="0 0 300 300">
  <!-- Removed the mint green border -->
  
  <!-- Base face circle -->
  <circle cx="150" cy="150" r="135" fill="#FFB732" stroke="#000033" stroke-width="5"/>
  
  <!-- Orange gradient for dimension -->
  <radialGradient id="faceGradient" cx="40%" cy="40%" r="60%" fx="40%" fy="40%">
    <stop offset="0%" stop-color="#FFCC66" />
    <stop offset="70%" stop-color="#FF9900" />
    <stop offset="100%" stop-color="#FF8800" />
  </radialGradient>
  <circle cx="150" cy="150" r="130" fill="url(#faceGradient)" stroke="#000033" stroke-width="5"/>
  
  <!-- Aviator-style Sunglasses -->
  <!-- Aviator frame -->
  <path d="M75 105 Q150 125 225 105" stroke="#B87333" stroke-width="4" fill="none"/>
  
  <!-- Left lens -->
  <path d="M75 105 Q95 145 125 130 Q140 120 130 105 Z" fill="#3D85C6" stroke="#B87333" stroke-width="3"/>
  
  <!-- Right lens -->
  <path d="M225 105 Q205 145 175 130 Q160 120 170 105 Z" fill="#3D85C6" stroke="#B87333" stroke-width="3"/>
  
  <!-- Bridge of sunglasses -->
  <path d="M130 105 L170 105" stroke="#B87333" stroke-width="4"/>
  
  <!-- Ear pieces -->
  <path d="M75 105 L60 115" stroke="#B87333" stroke-width="4"/>
  <path d="M225 105 L240 115" stroke="#B87333" stroke-width="4"/>
  
  <!-- Reflection on lenses -->
  <path d="M95 115 L115 110" stroke="#FFFFFF" stroke-width="2" opacity="0.6"/>
  <path d="M205 115 L185 110" stroke="#FFFFFF" stroke-width="2" opacity="0.6"/>
  
  <!-- Happy eyebrows - slightly raised -->
  <path d="M80 85 Q105 75 130 90" stroke="#000033" stroke-width="10" fill="none"/>
  <path d="M170 90 Q195 75 220 85" stroke="#000033" stroke-width="10" fill="none"/>
  
  <!-- Big smile mouth -->
  <path d="M95 190 Q150 240 205 190" stroke="#000033" stroke-width="12" fill="none" stroke-linecap="round"/>
  
  <!-- No smile lines or dimples -->
  
  <!-- Shading for 3D effect -->
  <path d="M220 150 Q250 200 200 250" fill="#FF8800" opacity="0.3"/>
</svg>
