<svg xmlns="http://www.w3.org/2000/svg" viewBox="0 0 300 300">
  <!-- Removed the mint green border -->
  
  <!-- Base face circle -->
  <circle cx="150" cy="150" r="135" fill="#FFB732" stroke="#000033" stroke-width="5"/>
  
  <!-- Orange gradient for dimension -->
  <radialGradient id="faceGradient" cx="40%" cy="40%" r="60%" fx="40%" fy="40%">
    <stop offset="0%" stop-color="#FFCC66" />
    <stop offset="70%" stop-color="#FF9900" />
    <stop offset="100%" stop-color="#FF8800" />
  </radialGradient>
  <circle cx="150" cy="150" r="130" fill="url(#faceGradient)" stroke="#000033" stroke-width="5"/>
  
  <!-- Dollar sign money eyes -->
  <!-- Remove original eyes -->
  
  <!-- Left dollar sign eye -->
  <circle cx="105" cy="125" r="28" fill="white" stroke="#000033" stroke-width="4"/>
  <path d="M105 105 L105 145" stroke="#000033" stroke-width="6" stroke-linecap="round"/>
  <path d="M95 110 C95 105 115 105 115 110 C115 125 95 125 95 135 C95 140 115 140 115 135" stroke="#000033" stroke-width="6" fill="none" stroke-linecap="round"/>
  
  <!-- Right dollar sign eye -->
  <circle cx="195" cy="125" r="28" fill="white" stroke="#000033" stroke-width="4"/>
  <path d="M195 105 L195 145" stroke="#000033" stroke-width="6" stroke-linecap="round"/>
  <path d="M185 110 C185 105 205 105 205 110 C205 125 185 125 185 135 C185 140 205 140 205 135" stroke="#000033" stroke-width="6" fill="none" stroke-linecap="round"/>
  
  <!-- Happy eyebrows - slightly raised -->
  <path d="M80 85 Q105 75 130 90" stroke="#000033" stroke-width="10" fill="none"/>
  <path d="M170 90 Q195 75 220 85" stroke="#000033" stroke-width="10" fill="none"/>
  
  <!-- Big smile mouth -->
  <path d="M95 190 Q150 240 205 190" stroke="#000033" stroke-width="12" fill="none" stroke-linecap="round"/>
  
  <!-- No smile lines or dimples -->
  
  <!-- Shading for 3D effect -->
  <path d="M220 150 Q250 200 200 250" fill="#FF8800" opacity="0.3"/>
</svg>
